<svg xmlns="http://www.w3.org/2000/svg" viewBox="0 0 320 81.44"><title>Asset 1</title><polygon points="0 53.6 3.42 56.66 13.97 44.9 13.97 57.35 7.31 66.1 14.19 81.44 20.85 81.44 17.63 70.12 21.68 66.01 28.88 81.44 34.71 81.44 31.27 69.97 36.91 59.65 47.23 59.65 47.23 81.44 52.97 81.44 58.7 59.65 58.7 30.97 20.3 30.97 0 53.6" fill="#3eba9c"/><polygon points="78.66 52.78 63.29 37.42 63.29 59.65 75.91 81.44 83.94 81.44 75.91 58.5 78.66 52.78" fill="#3eba9c"/><polygon points="91.97 19.5 87.38 12.62 77.06 12.62 63.29 30.97 80.76 48.4 89.68 29.82 97.71 29.82 100 20.65 91.97 19.5" fill="#3eba9c"/><polygon points="34.62 0 58.7 30.97 63.29 30.97 39.2 0 34.62 0" fill="#3eba9c"/><path d="M123.63,20h8.16c10.1,0,10.41,42.34.61,42.34h-8.59c-3.81,0-3.81,0-3.81-3.33V23.36C120,20.09,120,20.09,123.63,20Zm5.68,6.83h-.06c-2.42,0-2.42,0-2.42,2.3V53.23c0,2.24,0,2.24,2.54,2.24h.37C133.67,55.47,133.49,26.86,129.31,26.86Zm38.47,1.7c.18.66.06,25.22-.18,26.13-1.09,4.65-4.36,7.68-9.5,7.68h-1.57c-5.08,0-8.35-3-9.5-7.68-.24-.91-.3-25.47-.18-26.13.85-5.08,4-8.41,9.68-8.53h1.57C163.85,20.15,166.93,23.48,167.78,28.56ZM155.62,55.11a3.75,3.75,0,0,0,3.39,0c1.75-.85,2.06-3,2.12-4.42V31.76c0-1.45-.37-3.56-2.12-4.41a3.69,3.69,0,0,0-3.39,0c-1.75.85-2.11,3-2.11,4.41V50.69C153.57,52.15,153.87,54.26,155.62,55.11Zm41.13-11.86v6.11c0,1.76.3,5.63-1.33,8.53-1.88,3.33-5.44,4.29-8.77,4.48A11.25,11.25,0,0,1,178,59a10.31,10.31,0,0,1-2.9-7.38V30.74c.12-2.18.48-5.09,2.9-7.38A11.25,11.25,0,0,1,186.65,20c7,.36,9.8,4.66,9.8,11.67,0,1.58-6.6,1.82-6.6-.24,0-4.72-2.78-5-5.62-4.17-1.88.84-2.24,3-2.24,4.59V50.57c.06,1.51.24,3.69,2.12,4.54,1.45.48,5.87,1.21,6.23-2.42a12.13,12.13,0,0,0,.06-2.12l-.06-3.75h-2.66c-1.82,0-1.82-7,0-7h6.11C196.75,39.87,196.75,39.87,196.75,43.25Zm32.05-2.11,3.39-19.84c.3-1.87,7.38-1.81,6.83,1.21l-6.53,37.86c-.6,3-6.47,2.12-6.83.3l-4.11-21-4.18,21c-.3,1.82-6.29,2.72-6.83-.3L204,22.51c-.55-3,6.53-3.08,6.83-1.21l3.39,19.84L218,21.36c.6-1.81,6.35-1.81,7,0ZM261.7,21.3,268,59.71c.49,3-6.35,3.32-6.71,1.14l-1.21-7.25H253l-1.21,7.25c-.31,1.82-7.2,1.88-6.72-1.14l6.35-38.41c.31-1.81,10-1.63,10.28,0Zm-2.78,25.46-2.36-14.45-2.42,14.45Zm23.23,8.77h8.71c1.21,0,1.21,6.84,0,6.84H278.7c-3.45,0-3.45,0-3.45-3.33V21.42c0-1.21,6.9-1.21,6.9,0Zm28.18-14.27,9.5,17.48c1.33,2.42-5.39,4.65-6.17,3.14l-7.74-14.09V61c0,1.81-6.9,1.81-6.9,0V21.42c0-1.81,6.9-1.81,6.9,0V34.67l7.74-14.16c.78-1.39,7.5.67,6.17,3.15Z" fill="#111"/></svg>